<?xml version="1.0" encoding="UTF-8"?>
<!-- Generator: Adobe Illustrator 28.3.0, SVG Export Plug-In . SVG Version: 6.00 Build 0)  -->
<svg xmlns="http://www.w3.org/2000/svg" xmlns:xlink="http://www.w3.org/1999/xlink" version="1.1" id="Layer_2" x="0px" y="0px" viewBox="0 0 100.1 58.4" style="enable-background:new 0 0 100.1 58.4;" xml:space="preserve">
<style type="text/css">
	.st0{fill-rule:evenodd;clip-rule:evenodd;fill:#FF8200;}
	.st1{fill:#FF8200;}
	.st2{fill-rule:evenodd;clip-rule:evenodd;fill:#FFFFFF;}
</style>
<path class="st0" d="M99.1,42.3L84,57.4c-0.6,0.6-1.5,1-2.4,1H1.7c-0.9,0-1.7-0.7-1.7-1.7V18.5c0-0.9,0.4-1.7,1-2.4L16.1,1  c0.6-0.6,1.5-1,2.4-1h79.9c0.9,0,1.7,0.7,1.7,1.7v38.2C100.1,40.8,99.7,41.6,99.1,42.3z"></path>
<path class="st1" d="M98,58.4c1.2,0,2.1-0.9,2.1-2.1c0-1.2-0.9-2.1-2.1-2.1s-2.1,0.9-2.1,2.1C95.9,57.5,96.8,58.4,98,58.4z M98,57.9  c-0.9,0-1.5-0.6-1.5-1.5v-0.2c0-0.9,0.7-1.5,1.5-1.5s1.5,0.6,1.5,1.5v0.2C99.6,57.3,98.9,57.9,98,57.9z M97.7,56.6H98l0.4,0.8H99  l-0.5-0.8c0.3-0.1,0.4-0.3,0.4-0.6c0-0.4-0.3-0.7-0.7-0.7h-1v2.1h0.5V56.6z M97.7,56.2v-0.6h0.4c0.2,0,0.3,0.1,0.3,0.3V56  c0,0.2-0.1,0.3-0.3,0.3H97.7z"></path>
<path class="st2" d="M84.9,22.9h-5.6c-0.3,0-0.6,0.3-0.6,0.6v17.6c0,0.3-0.3,0.6-0.6,0.6H73c-0.3,0-0.6-0.3-0.6-0.6V23.5  c0-0.3-0.3-0.6-0.6-0.6h-5.6c-0.3,0-0.6-0.3-0.6-0.6v-5.1c0-0.3,0.3-0.6,0.6-0.6h18.6c0.3,0,0.6,0.3,0.6,0.6v5.1  C85.5,22.7,85.2,22.9,84.9,22.9z M63,41.7h-5.7c-0.2,0-0.4-0.1-0.6-0.2c-0.2-0.1-0.3-0.2-0.4-0.4l-3.8-6.6c0-0.1-0.1-0.1-0.3-0.1  h-4.1c-0.1,0-0.2,0.1-0.2,0.2V41c0,0.5-0.2,0.7-0.7,0.7h-4.9c-0.5,0-0.7-0.2-0.7-0.7V17.4c0-0.5,0.2-0.7,0.7-0.7h16  c0.6,0,1.1,0.1,1.6,0.3c0.5,0.2,1,0.5,1.3,0.9c0.4,0.4,0.7,0.8,0.9,1.3c0.2,0.5,0.3,1.1,0.3,1.6v9.4c0,0.9-0.3,1.7-0.8,2.4  c-0.5,0.7-1.2,1.2-2.1,1.5l-0.1,0c-0.2,0-0.2,0.1-0.1,0.2l0,0.1l3.8,6.6c0.1,0.2,0.1,0.3,0,0.4C63.3,41.6,63.2,41.7,63,41.7z   M56.3,22.4H48v6.3h8.3V22.4z M37,41.7h-5.1c-0.3,0-0.6-0.3-0.6-0.6v-8.2c0-0.3-0.3-0.6-0.6-0.6h-7.2c-0.3,0-0.6,0.3-0.6,0.6v8.2  c0,0.3-0.3,0.6-0.6,0.6h-5.1c-0.3,0-0.6-0.3-0.6-0.6V17.3c0-0.3,0.3-0.6,0.6-0.6h5.1c0.3,0,0.6,0.3,0.6,0.6v8.2  c0,0.3,0.3,0.6,0.6,0.6h7.2c0.3,0,0.6-0.3,0.6-0.6v-8.2c0-0.3,0.3-0.6,0.6-0.6H37c0.3,0,0.6,0.3,0.6,0.6v23.9  C37.5,41.4,37.3,41.7,37,41.7z"></path>
</svg>
